<mxfile host="app.diagrams.net" agent="Mozilla/5.0 (Windows NT 10.0; Win64; x64) AppleWebKit/537.36 (KHTML, like Gecko) Chrome/128.0.0.0 Safari/537.36 OPR/114.0.0.0" version="24.8.4">
  <diagram name="Страница — 1" id="Q5mQ6EyIHFrdvReiA6iZ">
    <mxGraphModel dx="1261" dy="674" grid="1" gridSize="10" guides="1" tooltips="1" connect="1" arrows="1" fold="1" page="1" pageScale="1" pageWidth="827" pageHeight="1169" math="0" shadow="0">
      <root>
        <mxCell id="0" />
        <mxCell id="1" parent="0" />
        <mxCell id="XjnwX9MCClepq0qYHrMa-5" value="App" style="shape=module;align=left;spacingLeft=20;align=center;verticalAlign=top;whiteSpace=wrap;html=1;" parent="1" vertex="1">
          <mxGeometry x="200" y="100" width="290" height="100" as="geometry" />
        </mxCell>
        <mxCell id="XjnwX9MCClepq0qYHrMa-1" value="main" style="swimlane;fontStyle=1;align=center;verticalAlign=top;childLayout=stackLayout;horizontal=1;startSize=26;horizontalStack=0;resizeParent=1;resizeParentMax=0;resizeLast=0;collapsible=1;marginBottom=0;whiteSpace=wrap;html=1;" parent="1" vertex="1">
          <mxGeometry x="270" y="133" width="160" height="34" as="geometry" />
        </mxCell>
        <mxCell id="XjnwX9MCClepq0qYHrMa-3" value="" style="line;strokeWidth=1;fillColor=none;align=left;verticalAlign=middle;spacingTop=-1;spacingLeft=3;spacingRight=3;rotatable=0;labelPosition=right;points=[];portConstraint=eastwest;strokeColor=inherit;" parent="XjnwX9MCClepq0qYHrMa-1" vertex="1">
          <mxGeometry y="26" width="160" height="8" as="geometry" />
        </mxCell>
        <mxCell id="V_y3H5t075kxLKEzEjP2-2" value="Canvas" style="shape=module;align=left;spacingLeft=20;align=center;verticalAlign=top;whiteSpace=wrap;html=1;" vertex="1" parent="1">
          <mxGeometry x="80" y="370" width="380" height="280" as="geometry" />
        </mxCell>
        <mxCell id="V_y3H5t075kxLKEzEjP2-3" value="&lt;i&gt;&amp;lt;&amp;lt;interface&amp;gt;&amp;gt; ICanvas&lt;/i&gt;" style="swimlane;fontStyle=1;align=center;verticalAlign=top;childLayout=stackLayout;horizontal=1;startSize=26;horizontalStack=0;resizeParent=1;resizeParentMax=0;resizeLast=0;collapsible=1;marginBottom=0;whiteSpace=wrap;html=1;" vertex="1" parent="1">
          <mxGeometry x="165" y="420" width="230" height="200" as="geometry" />
        </mxCell>
        <mxCell id="V_y3H5t075kxLKEzEjP2-5" value="" style="line;strokeWidth=1;fillColor=none;align=left;verticalAlign=middle;spacingTop=-1;spacingLeft=3;spacingRight=3;rotatable=0;labelPosition=right;points=[];portConstraint=eastwest;strokeColor=inherit;" vertex="1" parent="V_y3H5t075kxLKEzEjP2-3">
          <mxGeometry y="26" width="230" height="8" as="geometry" />
        </mxCell>
        <mxCell id="V_y3H5t075kxLKEzEjP2-6" value="&lt;i&gt;+ SetLineColor(color: RDBAColor): void&lt;/i&gt;" style="text;strokeColor=none;fillColor=none;align=left;verticalAlign=top;spacingLeft=4;spacingRight=4;overflow=hidden;rotatable=0;points=[[0,0.5],[1,0.5]];portConstraint=eastwest;whiteSpace=wrap;html=1;" vertex="1" parent="V_y3H5t075kxLKEzEjP2-3">
          <mxGeometry y="34" width="230" height="26" as="geometry" />
        </mxCell>
        <mxCell id="V_y3H5t075kxLKEzEjP2-18" value="&lt;i&gt;+ BeginFill(color: RDBAColor): void&lt;/i&gt;" style="text;strokeColor=none;fillColor=none;align=left;verticalAlign=top;spacingLeft=4;spacingRight=4;overflow=hidden;rotatable=0;points=[[0,0.5],[1,0.5]];portConstraint=eastwest;whiteSpace=wrap;html=1;" vertex="1" parent="V_y3H5t075kxLKEzEjP2-3">
          <mxGeometry y="60" width="230" height="26" as="geometry" />
        </mxCell>
        <mxCell id="V_y3H5t075kxLKEzEjP2-19" value="&lt;i&gt;+ EndFill(color: RDBAColor): void&lt;/i&gt;" style="text;strokeColor=none;fillColor=none;align=left;verticalAlign=top;spacingLeft=4;spacingRight=4;overflow=hidden;rotatable=0;points=[[0,0.5],[1,0.5]];portConstraint=eastwest;whiteSpace=wrap;html=1;" vertex="1" parent="V_y3H5t075kxLKEzEjP2-3">
          <mxGeometry y="86" width="230" height="26" as="geometry" />
        </mxCell>
        <mxCell id="V_y3H5t075kxLKEzEjP2-20" value="&lt;i&gt;+ MoveTo(x: double, y: double): void&lt;/i&gt;" style="text;strokeColor=none;fillColor=none;align=left;verticalAlign=top;spacingLeft=4;spacingRight=4;overflow=hidden;rotatable=0;points=[[0,0.5],[1,0.5]];portConstraint=eastwest;whiteSpace=wrap;html=1;" vertex="1" parent="V_y3H5t075kxLKEzEjP2-3">
          <mxGeometry y="112" width="230" height="26" as="geometry" />
        </mxCell>
        <mxCell id="V_y3H5t075kxLKEzEjP2-21" value="&lt;i&gt;+ LineTo(x: double, y: double): void&lt;/i&gt;" style="text;strokeColor=none;fillColor=none;align=left;verticalAlign=top;spacingLeft=4;spacingRight=4;overflow=hidden;rotatable=0;points=[[0,0.5],[1,0.5]];portConstraint=eastwest;whiteSpace=wrap;html=1;" vertex="1" parent="V_y3H5t075kxLKEzEjP2-3">
          <mxGeometry y="138" width="230" height="26" as="geometry" />
        </mxCell>
        <mxCell id="V_y3H5t075kxLKEzEjP2-22" value="&lt;i&gt;+ DrawEllipse(left: double, top: double, width: double, height: double): void&lt;/i&gt;" style="text;strokeColor=none;fillColor=none;align=left;verticalAlign=top;spacingLeft=4;spacingRight=4;overflow=hidden;rotatable=0;points=[[0,0.5],[1,0.5]];portConstraint=eastwest;whiteSpace=wrap;html=1;" vertex="1" parent="V_y3H5t075kxLKEzEjP2-3">
          <mxGeometry y="164" width="230" height="36" as="geometry" />
        </mxCell>
        <mxCell id="V_y3H5t075kxLKEzEjP2-7" value="CommonTypes" style="shape=module;align=left;spacingLeft=20;align=center;verticalAlign=top;whiteSpace=wrap;html=1;" vertex="1" parent="1">
          <mxGeometry x="530" y="330" width="300" height="350" as="geometry" />
        </mxCell>
        <mxCell id="V_y3H5t075kxLKEzEjP2-8" value="Rect&amp;lt;T&amp;gt;" style="swimlane;fontStyle=1;align=center;verticalAlign=top;childLayout=stackLayout;horizontal=1;startSize=26;horizontalStack=0;resizeParent=1;resizeParentMax=0;resizeLast=0;collapsible=1;marginBottom=0;whiteSpace=wrap;html=1;" vertex="1" parent="1">
          <mxGeometry x="600" y="360" width="160" height="138" as="geometry" />
        </mxCell>
        <mxCell id="V_y3H5t075kxLKEzEjP2-9" value="+ left: T" style="text;strokeColor=none;fillColor=none;align=left;verticalAlign=top;spacingLeft=4;spacingRight=4;overflow=hidden;rotatable=0;points=[[0,0.5],[1,0.5]];portConstraint=eastwest;whiteSpace=wrap;html=1;" vertex="1" parent="V_y3H5t075kxLKEzEjP2-8">
          <mxGeometry y="26" width="160" height="26" as="geometry" />
        </mxCell>
        <mxCell id="V_y3H5t075kxLKEzEjP2-12" value="+ top: T" style="text;strokeColor=none;fillColor=none;align=left;verticalAlign=top;spacingLeft=4;spacingRight=4;overflow=hidden;rotatable=0;points=[[0,0.5],[1,0.5]];portConstraint=eastwest;whiteSpace=wrap;html=1;" vertex="1" parent="V_y3H5t075kxLKEzEjP2-8">
          <mxGeometry y="52" width="160" height="26" as="geometry" />
        </mxCell>
        <mxCell id="V_y3H5t075kxLKEzEjP2-13" value="+ width: T" style="text;strokeColor=none;fillColor=none;align=left;verticalAlign=top;spacingLeft=4;spacingRight=4;overflow=hidden;rotatable=0;points=[[0,0.5],[1,0.5]];portConstraint=eastwest;whiteSpace=wrap;html=1;" vertex="1" parent="V_y3H5t075kxLKEzEjP2-8">
          <mxGeometry y="78" width="160" height="26" as="geometry" />
        </mxCell>
        <mxCell id="V_y3H5t075kxLKEzEjP2-14" value="+ height: T" style="text;strokeColor=none;fillColor=none;align=left;verticalAlign=top;spacingLeft=4;spacingRight=4;overflow=hidden;rotatable=0;points=[[0,0.5],[1,0.5]];portConstraint=eastwest;whiteSpace=wrap;html=1;" vertex="1" parent="V_y3H5t075kxLKEzEjP2-8">
          <mxGeometry y="104" width="160" height="26" as="geometry" />
        </mxCell>
        <mxCell id="V_y3H5t075kxLKEzEjP2-10" value="" style="line;strokeWidth=1;fillColor=none;align=left;verticalAlign=middle;spacingTop=-1;spacingLeft=3;spacingRight=3;rotatable=0;labelPosition=right;points=[];portConstraint=eastwest;strokeColor=inherit;" vertex="1" parent="V_y3H5t075kxLKEzEjP2-8">
          <mxGeometry y="130" width="160" height="8" as="geometry" />
        </mxCell>
        <mxCell id="V_y3H5t075kxLKEzEjP2-15" value="typedef Rect&amp;lt;double&amp;gt; RectD" style="html=1;whiteSpace=wrap;" vertex="1" parent="1">
          <mxGeometry x="580" y="550" width="190" height="50" as="geometry" />
        </mxCell>
        <mxCell id="V_y3H5t075kxLKEzEjP2-16" value="typedef uint32_t RGBAColor" style="html=1;whiteSpace=wrap;" vertex="1" parent="1">
          <mxGeometry x="580" y="610" width="190" height="50" as="geometry" />
        </mxCell>
        <mxCell id="V_y3H5t075kxLKEzEjP2-17" value="Use" style="endArrow=open;endSize=12;dashed=1;html=1;rounded=0;" edge="1" parent="1" source="V_y3H5t075kxLKEzEjP2-15" target="V_y3H5t075kxLKEzEjP2-8">
          <mxGeometry width="160" relative="1" as="geometry">
            <mxPoint x="480" y="490" as="sourcePoint" />
            <mxPoint x="640" y="490" as="targetPoint" />
          </mxGeometry>
        </mxCell>
        <mxCell id="V_y3H5t075kxLKEzEjP2-23" value="Use" style="endArrow=open;endSize=12;dashed=1;html=1;rounded=0;" edge="1" parent="1" source="V_y3H5t075kxLKEzEjP2-3" target="V_y3H5t075kxLKEzEjP2-16">
          <mxGeometry width="160" relative="1" as="geometry">
            <mxPoint x="340" y="490" as="sourcePoint" />
            <mxPoint x="500" y="490" as="targetPoint" />
          </mxGeometry>
        </mxCell>
        <mxCell id="V_y3H5t075kxLKEzEjP2-24" value="Shapes" style="shape=module;align=left;spacingLeft=20;align=center;verticalAlign=top;whiteSpace=wrap;html=1;" vertex="1" parent="1">
          <mxGeometry x="90" y="710" width="1350" height="700" as="geometry" />
        </mxCell>
        <mxCell id="V_y3H5t075kxLKEzEjP2-25" value="&lt;i&gt;&amp;lt;&amp;lt;interface&amp;gt;&amp;gt; IDrawable&lt;/i&gt;" style="swimlane;fontStyle=1;align=center;verticalAlign=top;childLayout=stackLayout;horizontal=1;startSize=26;horizontalStack=0;resizeParent=1;resizeParentMax=0;resizeLast=0;collapsible=1;marginBottom=0;whiteSpace=wrap;html=1;" vertex="1" parent="1">
          <mxGeometry x="140" y="750" width="180" height="60" as="geometry" />
        </mxCell>
        <mxCell id="V_y3H5t075kxLKEzEjP2-27" value="" style="line;strokeWidth=1;fillColor=none;align=left;verticalAlign=middle;spacingTop=-1;spacingLeft=3;spacingRight=3;rotatable=0;labelPosition=right;points=[];portConstraint=eastwest;strokeColor=inherit;" vertex="1" parent="V_y3H5t075kxLKEzEjP2-25">
          <mxGeometry y="26" width="180" height="8" as="geometry" />
        </mxCell>
        <mxCell id="V_y3H5t075kxLKEzEjP2-28" value="&lt;i&gt;+ Draw(canvas: ICanvas): void&lt;/i&gt;" style="text;strokeColor=none;fillColor=none;align=left;verticalAlign=top;spacingLeft=4;spacingRight=4;overflow=hidden;rotatable=0;points=[[0,0.5],[1,0.5]];portConstraint=eastwest;whiteSpace=wrap;html=1;" vertex="1" parent="V_y3H5t075kxLKEzEjP2-25">
          <mxGeometry y="34" width="180" height="26" as="geometry" />
        </mxCell>
        <mxCell id="V_y3H5t075kxLKEzEjP2-29" value="Use" style="endArrow=open;endSize=12;dashed=1;html=1;rounded=0;" edge="1" parent="1" source="V_y3H5t075kxLKEzEjP2-25" target="V_y3H5t075kxLKEzEjP2-3">
          <mxGeometry width="160" relative="1" as="geometry">
            <mxPoint x="360" y="720" as="sourcePoint" />
            <mxPoint x="520" y="720" as="targetPoint" />
          </mxGeometry>
        </mxCell>
        <mxCell id="V_y3H5t075kxLKEzEjP2-30" value="Style" style="swimlane;fontStyle=1;align=center;verticalAlign=top;childLayout=stackLayout;horizontal=1;startSize=26;horizontalStack=0;resizeParent=1;resizeParentMax=0;resizeLast=0;collapsible=1;marginBottom=0;whiteSpace=wrap;html=1;" vertex="1" parent="1">
          <mxGeometry x="130" y="850" width="220" height="190" as="geometry" />
        </mxCell>
        <mxCell id="V_y3H5t075kxLKEzEjP2-31" value="- m_enable: bool" style="text;strokeColor=none;fillColor=none;align=left;verticalAlign=top;spacingLeft=4;spacingRight=4;overflow=hidden;rotatable=0;points=[[0,0.5],[1,0.5]];portConstraint=eastwest;whiteSpace=wrap;html=1;" vertex="1" parent="V_y3H5t075kxLKEzEjP2-30">
          <mxGeometry y="26" width="220" height="26" as="geometry" />
        </mxCell>
        <mxCell id="V_y3H5t075kxLKEzEjP2-34" value="- m_color: opional&amp;lt;RGBAColor&amp;gt;" style="text;strokeColor=none;fillColor=none;align=left;verticalAlign=top;spacingLeft=4;spacingRight=4;overflow=hidden;rotatable=0;points=[[0,0.5],[1,0.5]];portConstraint=eastwest;whiteSpace=wrap;html=1;" vertex="1" parent="V_y3H5t075kxLKEzEjP2-30">
          <mxGeometry y="52" width="220" height="26" as="geometry" />
        </mxCell>
        <mxCell id="V_y3H5t075kxLKEzEjP2-32" value="" style="line;strokeWidth=1;fillColor=none;align=left;verticalAlign=middle;spacingTop=-1;spacingLeft=3;spacingRight=3;rotatable=0;labelPosition=right;points=[];portConstraint=eastwest;strokeColor=inherit;" vertex="1" parent="V_y3H5t075kxLKEzEjP2-30">
          <mxGeometry y="78" width="220" height="8" as="geometry" />
        </mxCell>
        <mxCell id="V_y3H5t075kxLKEzEjP2-33" value="+ IsEnable(): bool" style="text;strokeColor=none;fillColor=none;align=left;verticalAlign=top;spacingLeft=4;spacingRight=4;overflow=hidden;rotatable=0;points=[[0,0.5],[1,0.5]];portConstraint=eastwest;whiteSpace=wrap;html=1;" vertex="1" parent="V_y3H5t075kxLKEzEjP2-30">
          <mxGeometry y="86" width="220" height="26" as="geometry" />
        </mxCell>
        <mxCell id="V_y3H5t075kxLKEzEjP2-36" value="+ Enable(enable: bool): void" style="text;strokeColor=none;fillColor=none;align=left;verticalAlign=top;spacingLeft=4;spacingRight=4;overflow=hidden;rotatable=0;points=[[0,0.5],[1,0.5]];portConstraint=eastwest;whiteSpace=wrap;html=1;" vertex="1" parent="V_y3H5t075kxLKEzEjP2-30">
          <mxGeometry y="112" width="220" height="26" as="geometry" />
        </mxCell>
        <mxCell id="V_y3H5t075kxLKEzEjP2-37" value="+ GetColor(): optional&amp;lt;RGBAColor&amp;gt;" style="text;strokeColor=none;fillColor=none;align=left;verticalAlign=top;spacingLeft=4;spacingRight=4;overflow=hidden;rotatable=0;points=[[0,0.5],[1,0.5]];portConstraint=eastwest;whiteSpace=wrap;html=1;" vertex="1" parent="V_y3H5t075kxLKEzEjP2-30">
          <mxGeometry y="138" width="220" height="26" as="geometry" />
        </mxCell>
        <mxCell id="V_y3H5t075kxLKEzEjP2-39" value="+ SetColor(color: RGBAColor): void" style="text;strokeColor=none;fillColor=none;align=left;verticalAlign=top;spacingLeft=4;spacingRight=4;overflow=hidden;rotatable=0;points=[[0,0.5],[1,0.5]];portConstraint=eastwest;whiteSpace=wrap;html=1;" vertex="1" parent="V_y3H5t075kxLKEzEjP2-30">
          <mxGeometry y="164" width="220" height="26" as="geometry" />
        </mxCell>
        <mxCell id="V_y3H5t075kxLKEzEjP2-35" value="" style="endArrow=diamondThin;endFill=1;endSize=24;html=1;rounded=0;" edge="1" parent="1" source="V_y3H5t075kxLKEzEjP2-16" target="V_y3H5t075kxLKEzEjP2-30">
          <mxGeometry width="160" relative="1" as="geometry">
            <mxPoint x="360" y="820" as="sourcePoint" />
            <mxPoint x="520" y="820" as="targetPoint" />
          </mxGeometry>
        </mxCell>
        <mxCell id="V_y3H5t075kxLKEzEjP2-40" value="&lt;i&gt;&amp;lt;&amp;lt;interface&amp;gt;&amp;gt; IShape&lt;/i&gt;" style="swimlane;fontStyle=1;align=center;verticalAlign=top;childLayout=stackLayout;horizontal=1;startSize=26;horizontalStack=0;resizeParent=1;resizeParentMax=0;resizeLast=0;collapsible=1;marginBottom=0;whiteSpace=wrap;html=1;" vertex="1" parent="1">
          <mxGeometry x="480" y="840" width="220" height="216" as="geometry" />
        </mxCell>
        <mxCell id="V_y3H5t075kxLKEzEjP2-42" value="" style="line;strokeWidth=1;fillColor=none;align=left;verticalAlign=middle;spacingTop=-1;spacingLeft=3;spacingRight=3;rotatable=0;labelPosition=right;points=[];portConstraint=eastwest;strokeColor=inherit;" vertex="1" parent="V_y3H5t075kxLKEzEjP2-40">
          <mxGeometry y="26" width="220" height="8" as="geometry" />
        </mxCell>
        <mxCell id="V_y3H5t075kxLKEzEjP2-43" value="&lt;i&gt;+ GetFrame(): RectD&lt;/i&gt;" style="text;strokeColor=none;fillColor=none;align=left;verticalAlign=top;spacingLeft=4;spacingRight=4;overflow=hidden;rotatable=0;points=[[0,0.5],[1,0.5]];portConstraint=eastwest;whiteSpace=wrap;html=1;" vertex="1" parent="V_y3H5t075kxLKEzEjP2-40">
          <mxGeometry y="34" width="220" height="26" as="geometry" />
        </mxCell>
        <mxCell id="V_y3H5t075kxLKEzEjP2-46" value="&lt;i&gt;+ SetFrame(rect: RectD): void&lt;/i&gt;" style="text;strokeColor=none;fillColor=none;align=left;verticalAlign=top;spacingLeft=4;spacingRight=4;overflow=hidden;rotatable=0;points=[[0,0.5],[1,0.5]];portConstraint=eastwest;whiteSpace=wrap;html=1;" vertex="1" parent="V_y3H5t075kxLKEzEjP2-40">
          <mxGeometry y="60" width="220" height="26" as="geometry" />
        </mxCell>
        <mxCell id="V_y3H5t075kxLKEzEjP2-47" value="&lt;i&gt;+ GetOutlineStyle(): Style&lt;/i&gt;" style="text;strokeColor=none;fillColor=none;align=left;verticalAlign=top;spacingLeft=4;spacingRight=4;overflow=hidden;rotatable=0;points=[[0,0.5],[1,0.5]];portConstraint=eastwest;whiteSpace=wrap;html=1;" vertex="1" parent="V_y3H5t075kxLKEzEjP2-40">
          <mxGeometry y="86" width="220" height="26" as="geometry" />
        </mxCell>
        <mxCell id="V_y3H5t075kxLKEzEjP2-48" value="&lt;i&gt;+ SetOutlineStyle(style: Style): void&lt;/i&gt;" style="text;strokeColor=none;fillColor=none;align=left;verticalAlign=top;spacingLeft=4;spacingRight=4;overflow=hidden;rotatable=0;points=[[0,0.5],[1,0.5]];portConstraint=eastwest;whiteSpace=wrap;html=1;" vertex="1" parent="V_y3H5t075kxLKEzEjP2-40">
          <mxGeometry y="112" width="220" height="26" as="geometry" />
        </mxCell>
        <mxCell id="V_y3H5t075kxLKEzEjP2-49" value="&lt;i&gt;+ GetFillStyle(): Style&lt;/i&gt;" style="text;strokeColor=none;fillColor=none;align=left;verticalAlign=top;spacingLeft=4;spacingRight=4;overflow=hidden;rotatable=0;points=[[0,0.5],[1,0.5]];portConstraint=eastwest;whiteSpace=wrap;html=1;" vertex="1" parent="V_y3H5t075kxLKEzEjP2-40">
          <mxGeometry y="138" width="220" height="26" as="geometry" />
        </mxCell>
        <mxCell id="V_y3H5t075kxLKEzEjP2-50" value="&lt;i&gt;+ SetFillStyle(style: Style): void&lt;/i&gt;" style="text;strokeColor=none;fillColor=none;align=left;verticalAlign=top;spacingLeft=4;spacingRight=4;overflow=hidden;rotatable=0;points=[[0,0.5],[1,0.5]];portConstraint=eastwest;whiteSpace=wrap;html=1;" vertex="1" parent="V_y3H5t075kxLKEzEjP2-40">
          <mxGeometry y="164" width="220" height="26" as="geometry" />
        </mxCell>
        <mxCell id="V_y3H5t075kxLKEzEjP2-51" value="&lt;i&gt;+ GetGroup(): IGroup*&lt;/i&gt;" style="text;strokeColor=none;fillColor=none;align=left;verticalAlign=top;spacingLeft=4;spacingRight=4;overflow=hidden;rotatable=0;points=[[0,0.5],[1,0.5]];portConstraint=eastwest;whiteSpace=wrap;html=1;" vertex="1" parent="V_y3H5t075kxLKEzEjP2-40">
          <mxGeometry y="190" width="220" height="26" as="geometry" />
        </mxCell>
        <mxCell id="V_y3H5t075kxLKEzEjP2-44" value="Extends" style="endArrow=block;endSize=16;endFill=0;html=1;rounded=0;" edge="1" parent="1" source="V_y3H5t075kxLKEzEjP2-40" target="V_y3H5t075kxLKEzEjP2-25">
          <mxGeometry width="160" relative="1" as="geometry">
            <mxPoint x="480" y="890" as="sourcePoint" />
            <mxPoint x="640" y="890" as="targetPoint" />
          </mxGeometry>
        </mxCell>
        <mxCell id="V_y3H5t075kxLKEzEjP2-45" value="Use" style="endArrow=open;endSize=12;dashed=1;html=1;rounded=0;" edge="1" parent="1" source="V_y3H5t075kxLKEzEjP2-40" target="V_y3H5t075kxLKEzEjP2-15">
          <mxGeometry width="160" relative="1" as="geometry">
            <mxPoint x="480" y="850" as="sourcePoint" />
            <mxPoint x="640" y="850" as="targetPoint" />
            <Array as="points">
              <mxPoint x="510" y="630" />
            </Array>
          </mxGeometry>
        </mxCell>
        <mxCell id="V_y3H5t075kxLKEzEjP2-52" value="IGroup" style="swimlane;fontStyle=1;align=center;verticalAlign=top;childLayout=stackLayout;horizontal=1;startSize=26;horizontalStack=0;resizeParent=1;resizeParentMax=0;resizeLast=0;collapsible=1;marginBottom=0;whiteSpace=wrap;html=1;" vertex="1" parent="1">
          <mxGeometry x="800" y="840" width="260" height="378" as="geometry" />
        </mxCell>
        <mxCell id="V_y3H5t075kxLKEzEjP2-75" value="- m_shapes: vector&amp;lt;shared_ptr&amp;gt;" style="text;strokeColor=none;fillColor=none;align=left;verticalAlign=top;spacingLeft=4;spacingRight=4;overflow=hidden;rotatable=0;points=[[0,0.5],[1,0.5]];portConstraint=eastwest;whiteSpace=wrap;html=1;" vertex="1" parent="V_y3H5t075kxLKEzEjP2-52">
          <mxGeometry y="26" width="260" height="26" as="geometry" />
        </mxCell>
        <mxCell id="V_y3H5t075kxLKEzEjP2-53" value="" style="line;strokeWidth=1;fillColor=none;align=left;verticalAlign=middle;spacingTop=-1;spacingLeft=3;spacingRight=3;rotatable=0;labelPosition=right;points=[];portConstraint=eastwest;strokeColor=inherit;" vertex="1" parent="V_y3H5t075kxLKEzEjP2-52">
          <mxGeometry y="52" width="260" height="8" as="geometry" />
        </mxCell>
        <mxCell id="V_y3H5t075kxLKEzEjP2-60" value="+ GetShapesCount(): size_t" style="text;strokeColor=none;fillColor=none;align=left;verticalAlign=top;spacingLeft=4;spacingRight=4;overflow=hidden;rotatable=0;points=[[0,0.5],[1,0.5]];portConstraint=eastwest;whiteSpace=wrap;html=1;" vertex="1" parent="V_y3H5t075kxLKEzEjP2-52">
          <mxGeometry y="60" width="260" height="26" as="geometry" />
        </mxCell>
        <mxCell id="V_y3H5t075kxLKEzEjP2-63" value="+ InsertShape(shape: shared_ptr&amp;lt;IShape&amp;gt;, pos: size_t): void" style="text;strokeColor=none;fillColor=none;align=left;verticalAlign=top;spacingLeft=4;spacingRight=4;overflow=hidden;rotatable=0;points=[[0,0.5],[1,0.5]];portConstraint=eastwest;whiteSpace=wrap;html=1;" vertex="1" parent="V_y3H5t075kxLKEzEjP2-52">
          <mxGeometry y="86" width="260" height="40" as="geometry" />
        </mxCell>
        <mxCell id="V_y3H5t075kxLKEzEjP2-64" value="+ GetShapeAtIndex(index: size_t): shared_ptr&amp;lt;IShape&amp;gt;" style="text;strokeColor=none;fillColor=none;align=left;verticalAlign=top;spacingLeft=4;spacingRight=4;overflow=hidden;rotatable=0;points=[[0,0.5],[1,0.5]];portConstraint=eastwest;whiteSpace=wrap;html=1;" vertex="1" parent="V_y3H5t075kxLKEzEjP2-52">
          <mxGeometry y="126" width="260" height="40" as="geometry" />
        </mxCell>
        <mxCell id="V_y3H5t075kxLKEzEjP2-65" value="+ RemoveShapeAtIndex(index: size_t): void" style="text;strokeColor=none;fillColor=none;align=left;verticalAlign=top;spacingLeft=4;spacingRight=4;overflow=hidden;rotatable=0;points=[[0,0.5],[1,0.5]];portConstraint=eastwest;whiteSpace=wrap;html=1;" vertex="1" parent="V_y3H5t075kxLKEzEjP2-52">
          <mxGeometry y="166" width="260" height="30" as="geometry" />
        </mxCell>
        <mxCell id="V_y3H5t075kxLKEzEjP2-92" value="+ GetFrame(): RectD" style="text;strokeColor=none;fillColor=none;align=left;verticalAlign=top;spacingLeft=4;spacingRight=4;overflow=hidden;rotatable=0;points=[[0,0.5],[1,0.5]];portConstraint=eastwest;whiteSpace=wrap;html=1;" vertex="1" parent="V_y3H5t075kxLKEzEjP2-52">
          <mxGeometry y="196" width="260" height="26" as="geometry" />
        </mxCell>
        <mxCell id="V_y3H5t075kxLKEzEjP2-93" value="+ SetFrame(rect: RectD): void" style="text;strokeColor=none;fillColor=none;align=left;verticalAlign=top;spacingLeft=4;spacingRight=4;overflow=hidden;rotatable=0;points=[[0,0.5],[1,0.5]];portConstraint=eastwest;whiteSpace=wrap;html=1;" vertex="1" parent="V_y3H5t075kxLKEzEjP2-52">
          <mxGeometry y="222" width="260" height="26" as="geometry" />
        </mxCell>
        <mxCell id="V_y3H5t075kxLKEzEjP2-94" value="+ GetOutlineStyle(): Style" style="text;strokeColor=none;fillColor=none;align=left;verticalAlign=top;spacingLeft=4;spacingRight=4;overflow=hidden;rotatable=0;points=[[0,0.5],[1,0.5]];portConstraint=eastwest;whiteSpace=wrap;html=1;" vertex="1" parent="V_y3H5t075kxLKEzEjP2-52">
          <mxGeometry y="248" width="260" height="26" as="geometry" />
        </mxCell>
        <mxCell id="V_y3H5t075kxLKEzEjP2-95" value="+ SetOutlineStyle(style: Style): void" style="text;strokeColor=none;fillColor=none;align=left;verticalAlign=top;spacingLeft=4;spacingRight=4;overflow=hidden;rotatable=0;points=[[0,0.5],[1,0.5]];portConstraint=eastwest;whiteSpace=wrap;html=1;" vertex="1" parent="V_y3H5t075kxLKEzEjP2-52">
          <mxGeometry y="274" width="260" height="26" as="geometry" />
        </mxCell>
        <mxCell id="V_y3H5t075kxLKEzEjP2-96" value="+ GetFillStyle(): Style" style="text;strokeColor=none;fillColor=none;align=left;verticalAlign=top;spacingLeft=4;spacingRight=4;overflow=hidden;rotatable=0;points=[[0,0.5],[1,0.5]];portConstraint=eastwest;whiteSpace=wrap;html=1;" vertex="1" parent="V_y3H5t075kxLKEzEjP2-52">
          <mxGeometry y="300" width="260" height="26" as="geometry" />
        </mxCell>
        <mxCell id="V_y3H5t075kxLKEzEjP2-97" value="+ SetFillStyle(style: Style): void" style="text;strokeColor=none;fillColor=none;align=left;verticalAlign=top;spacingLeft=4;spacingRight=4;overflow=hidden;rotatable=0;points=[[0,0.5],[1,0.5]];portConstraint=eastwest;whiteSpace=wrap;html=1;" vertex="1" parent="V_y3H5t075kxLKEzEjP2-52">
          <mxGeometry y="326" width="260" height="26" as="geometry" />
        </mxCell>
        <mxCell id="V_y3H5t075kxLKEzEjP2-98" value="+ GetGroup(): IGroup*" style="text;strokeColor=none;fillColor=none;align=left;verticalAlign=top;spacingLeft=4;spacingRight=4;overflow=hidden;rotatable=0;points=[[0,0.5],[1,0.5]];portConstraint=eastwest;whiteSpace=wrap;html=1;" vertex="1" parent="V_y3H5t075kxLKEzEjP2-52">
          <mxGeometry y="352" width="260" height="26" as="geometry" />
        </mxCell>
        <mxCell id="V_y3H5t075kxLKEzEjP2-66" value="Use" style="endArrow=open;endSize=12;dashed=1;html=1;rounded=0;" edge="1" parent="1" source="V_y3H5t075kxLKEzEjP2-40" target="V_y3H5t075kxLKEzEjP2-52">
          <mxGeometry width="160" relative="1" as="geometry">
            <mxPoint x="680" y="940" as="sourcePoint" />
            <mxPoint x="840" y="940" as="targetPoint" />
            <Array as="points">
              <mxPoint x="750" y="1010" />
            </Array>
          </mxGeometry>
        </mxCell>
        <mxCell id="V_y3H5t075kxLKEzEjP2-67" value="Slide" style="swimlane;fontStyle=1;align=center;verticalAlign=top;childLayout=stackLayout;horizontal=1;startSize=26;horizontalStack=0;resizeParent=1;resizeParentMax=0;resizeLast=0;collapsible=1;marginBottom=0;whiteSpace=wrap;html=1;" vertex="1" parent="1">
          <mxGeometry x="1140" y="850" width="280" height="138" as="geometry" />
        </mxCell>
        <mxCell id="V_y3H5t075kxLKEzEjP2-68" value="- m_shapes: shared_ptr&amp;lt;IGroup&amp;gt;" style="text;strokeColor=none;fillColor=none;align=left;verticalAlign=top;spacingLeft=4;spacingRight=4;overflow=hidden;rotatable=0;points=[[0,0.5],[1,0.5]];portConstraint=eastwest;whiteSpace=wrap;html=1;" vertex="1" parent="V_y3H5t075kxLKEzEjP2-67">
          <mxGeometry y="26" width="280" height="26" as="geometry" />
        </mxCell>
        <mxCell id="V_y3H5t075kxLKEzEjP2-69" value="" style="line;strokeWidth=1;fillColor=none;align=left;verticalAlign=middle;spacingTop=-1;spacingLeft=3;spacingRight=3;rotatable=0;labelPosition=right;points=[];portConstraint=eastwest;strokeColor=inherit;" vertex="1" parent="V_y3H5t075kxLKEzEjP2-67">
          <mxGeometry y="52" width="280" height="8" as="geometry" />
        </mxCell>
        <mxCell id="V_y3H5t075kxLKEzEjP2-70" value="+ GetShapes(): shared_ptr&amp;lt;IGroup&amp;gt;" style="text;strokeColor=none;fillColor=none;align=left;verticalAlign=top;spacingLeft=4;spacingRight=4;overflow=hidden;rotatable=0;points=[[0,0.5],[1,0.5]];portConstraint=eastwest;whiteSpace=wrap;html=1;" vertex="1" parent="V_y3H5t075kxLKEzEjP2-67">
          <mxGeometry y="60" width="280" height="26" as="geometry" />
        </mxCell>
        <mxCell id="V_y3H5t075kxLKEzEjP2-71" value="+ GetBackgroundColor(): RGBAColor" style="text;strokeColor=none;fillColor=none;align=left;verticalAlign=top;spacingLeft=4;spacingRight=4;overflow=hidden;rotatable=0;points=[[0,0.5],[1,0.5]];portConstraint=eastwest;whiteSpace=wrap;html=1;" vertex="1" parent="V_y3H5t075kxLKEzEjP2-67">
          <mxGeometry y="86" width="280" height="26" as="geometry" />
        </mxCell>
        <mxCell id="V_y3H5t075kxLKEzEjP2-72" value="+ SetBackgroundColor(color: RGBAColor): void" style="text;strokeColor=none;fillColor=none;align=left;verticalAlign=top;spacingLeft=4;spacingRight=4;overflow=hidden;rotatable=0;points=[[0,0.5],[1,0.5]];portConstraint=eastwest;whiteSpace=wrap;html=1;" vertex="1" parent="V_y3H5t075kxLKEzEjP2-67">
          <mxGeometry y="112" width="280" height="26" as="geometry" />
        </mxCell>
        <mxCell id="V_y3H5t075kxLKEzEjP2-73" value="" style="endArrow=diamondThin;endFill=0;endSize=24;html=1;rounded=0;" edge="1" parent="1" source="V_y3H5t075kxLKEzEjP2-52" target="V_y3H5t075kxLKEzEjP2-67">
          <mxGeometry width="160" relative="1" as="geometry">
            <mxPoint x="1000" y="890" as="sourcePoint" />
            <mxPoint x="1160" y="890" as="targetPoint" />
          </mxGeometry>
        </mxCell>
        <mxCell id="V_y3H5t075kxLKEzEjP2-74" value="Use" style="endArrow=open;endSize=12;dashed=1;html=1;rounded=0;" edge="1" parent="1" source="V_y3H5t075kxLKEzEjP2-67" target="V_y3H5t075kxLKEzEjP2-16">
          <mxGeometry width="160" relative="1" as="geometry">
            <mxPoint x="1044.08" y="850" as="sourcePoint" />
            <mxPoint x="859.9983673469391" y="630" as="targetPoint" />
          </mxGeometry>
        </mxCell>
        <mxCell id="V_y3H5t075kxLKEzEjP2-76" value="Shape" style="swimlane;fontStyle=1;align=center;verticalAlign=top;childLayout=stackLayout;horizontal=1;startSize=26;horizontalStack=0;resizeParent=1;resizeParentMax=0;resizeLast=0;collapsible=1;marginBottom=0;whiteSpace=wrap;html=1;" vertex="1" parent="1">
          <mxGeometry x="480" y="1100" width="230" height="294" as="geometry" />
        </mxCell>
        <mxCell id="V_y3H5t075kxLKEzEjP2-91" value="# m_rect: RectD" style="text;strokeColor=none;fillColor=none;align=left;verticalAlign=top;spacingLeft=4;spacingRight=4;overflow=hidden;rotatable=0;points=[[0,0.5],[1,0.5]];portConstraint=eastwest;whiteSpace=wrap;html=1;" vertex="1" parent="V_y3H5t075kxLKEzEjP2-76">
          <mxGeometry y="26" width="230" height="26" as="geometry" />
        </mxCell>
        <mxCell id="V_y3H5t075kxLKEzEjP2-89" value="# m_outlineStyle: Style" style="text;strokeColor=none;fillColor=none;align=left;verticalAlign=top;spacingLeft=4;spacingRight=4;overflow=hidden;rotatable=0;points=[[0,0.5],[1,0.5]];portConstraint=eastwest;whiteSpace=wrap;html=1;" vertex="1" parent="V_y3H5t075kxLKEzEjP2-76">
          <mxGeometry y="52" width="230" height="26" as="geometry" />
        </mxCell>
        <mxCell id="V_y3H5t075kxLKEzEjP2-90" value="# m_fillStyle: Style" style="text;strokeColor=none;fillColor=none;align=left;verticalAlign=top;spacingLeft=4;spacingRight=4;overflow=hidden;rotatable=0;points=[[0,0.5],[1,0.5]];portConstraint=eastwest;whiteSpace=wrap;html=1;" vertex="1" parent="V_y3H5t075kxLKEzEjP2-76">
          <mxGeometry y="78" width="230" height="26" as="geometry" />
        </mxCell>
        <mxCell id="V_y3H5t075kxLKEzEjP2-78" value="" style="line;strokeWidth=1;fillColor=none;align=left;verticalAlign=middle;spacingTop=-1;spacingLeft=3;spacingRight=3;rotatable=0;labelPosition=right;points=[];portConstraint=eastwest;strokeColor=inherit;" vertex="1" parent="V_y3H5t075kxLKEzEjP2-76">
          <mxGeometry y="104" width="230" height="8" as="geometry" />
        </mxCell>
        <mxCell id="V_y3H5t075kxLKEzEjP2-82" value="+ GetFrame(): RectD" style="text;strokeColor=none;fillColor=none;align=left;verticalAlign=top;spacingLeft=4;spacingRight=4;overflow=hidden;rotatable=0;points=[[0,0.5],[1,0.5]];portConstraint=eastwest;whiteSpace=wrap;html=1;" vertex="1" parent="V_y3H5t075kxLKEzEjP2-76">
          <mxGeometry y="112" width="230" height="26" as="geometry" />
        </mxCell>
        <mxCell id="V_y3H5t075kxLKEzEjP2-83" value="+ SetFrame(rect: RectD): void" style="text;strokeColor=none;fillColor=none;align=left;verticalAlign=top;spacingLeft=4;spacingRight=4;overflow=hidden;rotatable=0;points=[[0,0.5],[1,0.5]];portConstraint=eastwest;whiteSpace=wrap;html=1;" vertex="1" parent="V_y3H5t075kxLKEzEjP2-76">
          <mxGeometry y="138" width="230" height="26" as="geometry" />
        </mxCell>
        <mxCell id="V_y3H5t075kxLKEzEjP2-84" value="+ GetOutlineStyle(): Style" style="text;strokeColor=none;fillColor=none;align=left;verticalAlign=top;spacingLeft=4;spacingRight=4;overflow=hidden;rotatable=0;points=[[0,0.5],[1,0.5]];portConstraint=eastwest;whiteSpace=wrap;html=1;" vertex="1" parent="V_y3H5t075kxLKEzEjP2-76">
          <mxGeometry y="164" width="230" height="26" as="geometry" />
        </mxCell>
        <mxCell id="V_y3H5t075kxLKEzEjP2-85" value="+ SetOutlineStyle(style: Style): void" style="text;strokeColor=none;fillColor=none;align=left;verticalAlign=top;spacingLeft=4;spacingRight=4;overflow=hidden;rotatable=0;points=[[0,0.5],[1,0.5]];portConstraint=eastwest;whiteSpace=wrap;html=1;" vertex="1" parent="V_y3H5t075kxLKEzEjP2-76">
          <mxGeometry y="190" width="230" height="26" as="geometry" />
        </mxCell>
        <mxCell id="V_y3H5t075kxLKEzEjP2-86" value="+ GetFillStyle(): Style" style="text;strokeColor=none;fillColor=none;align=left;verticalAlign=top;spacingLeft=4;spacingRight=4;overflow=hidden;rotatable=0;points=[[0,0.5],[1,0.5]];portConstraint=eastwest;whiteSpace=wrap;html=1;" vertex="1" parent="V_y3H5t075kxLKEzEjP2-76">
          <mxGeometry y="216" width="230" height="26" as="geometry" />
        </mxCell>
        <mxCell id="V_y3H5t075kxLKEzEjP2-87" value="+ SetFillStyle(style: Style): void" style="text;strokeColor=none;fillColor=none;align=left;verticalAlign=top;spacingLeft=4;spacingRight=4;overflow=hidden;rotatable=0;points=[[0,0.5],[1,0.5]];portConstraint=eastwest;whiteSpace=wrap;html=1;" vertex="1" parent="V_y3H5t075kxLKEzEjP2-76">
          <mxGeometry y="242" width="230" height="26" as="geometry" />
        </mxCell>
        <mxCell id="V_y3H5t075kxLKEzEjP2-88" value="+ GetGroup(): IGroup*" style="text;strokeColor=none;fillColor=none;align=left;verticalAlign=top;spacingLeft=4;spacingRight=4;overflow=hidden;rotatable=0;points=[[0,0.5],[1,0.5]];portConstraint=eastwest;whiteSpace=wrap;html=1;" vertex="1" parent="V_y3H5t075kxLKEzEjP2-76">
          <mxGeometry y="268" width="230" height="26" as="geometry" />
        </mxCell>
        <mxCell id="V_y3H5t075kxLKEzEjP2-80" value="" style="endArrow=block;dashed=1;endFill=0;endSize=12;html=1;rounded=0;" edge="1" parent="1" source="V_y3H5t075kxLKEzEjP2-76" target="V_y3H5t075kxLKEzEjP2-40">
          <mxGeometry width="160" relative="1" as="geometry">
            <mxPoint x="620" y="990" as="sourcePoint" />
            <mxPoint x="780" y="990" as="targetPoint" />
          </mxGeometry>
        </mxCell>
        <mxCell id="V_y3H5t075kxLKEzEjP2-81" value="" style="endArrow=block;dashed=1;endFill=0;endSize=12;html=1;rounded=0;" edge="1" parent="1" source="V_y3H5t075kxLKEzEjP2-52" target="V_y3H5t075kxLKEzEjP2-40">
          <mxGeometry width="160" relative="1" as="geometry">
            <mxPoint x="620" y="990" as="sourcePoint" />
            <mxPoint x="780" y="990" as="targetPoint" />
          </mxGeometry>
        </mxCell>
        <mxCell id="V_y3H5t075kxLKEzEjP2-99" value="" style="endArrow=diamondThin;endFill=1;endSize=24;html=1;rounded=0;" edge="1" parent="1" source="V_y3H5t075kxLKEzEjP2-30" target="V_y3H5t075kxLKEzEjP2-76">
          <mxGeometry width="160" relative="1" as="geometry">
            <mxPoint x="550" y="1070" as="sourcePoint" />
            <mxPoint x="710" y="1070" as="targetPoint" />
          </mxGeometry>
        </mxCell>
        <mxCell id="V_y3H5t075kxLKEzEjP2-100" value="Use" style="endArrow=open;endSize=12;dashed=1;html=1;rounded=0;" edge="1" parent="1" source="V_y3H5t075kxLKEzEjP2-52" target="V_y3H5t075kxLKEzEjP2-30">
          <mxGeometry width="160" relative="1" as="geometry">
            <mxPoint x="550" y="1070" as="sourcePoint" />
            <mxPoint x="710" y="1070" as="targetPoint" />
            <Array as="points">
              <mxPoint x="710" y="1080" />
              <mxPoint x="480" y="1080" />
            </Array>
          </mxGeometry>
        </mxCell>
        <mxCell id="V_y3H5t075kxLKEzEjP2-101" value="Use" style="endArrow=open;endSize=12;dashed=1;html=1;rounded=0;" edge="1" parent="1" source="V_y3H5t075kxLKEzEjP2-76" target="V_y3H5t075kxLKEzEjP2-15">
          <mxGeometry width="160" relative="1" as="geometry">
            <mxPoint x="550" y="1070" as="sourcePoint" />
            <mxPoint x="710" y="1070" as="targetPoint" />
            <Array as="points">
              <mxPoint x="740" y="1110" />
              <mxPoint x="790" y="580" />
            </Array>
          </mxGeometry>
        </mxCell>
        <mxCell id="V_y3H5t075kxLKEzEjP2-102" value="Use" style="endArrow=open;endSize=12;dashed=1;html=1;rounded=0;" edge="1" parent="1" source="V_y3H5t075kxLKEzEjP2-52" target="V_y3H5t075kxLKEzEjP2-15">
          <mxGeometry width="160" relative="1" as="geometry">
            <mxPoint x="660" y="850" as="sourcePoint" />
            <mxPoint x="820" y="850" as="targetPoint" />
            <Array as="points">
              <mxPoint x="870" y="590" />
            </Array>
          </mxGeometry>
        </mxCell>
      </root>
    </mxGraphModel>
  </diagram>
</mxfile>
